# xmcd CD database file
#
# Track frame offsets:
#	182
#	45365
#	89752
#	132067
#	174740
#	218247
#
# Disc length: 3464 seconds
#
# Revision: 0
# Processed by: cddbd v1.5.2PL0 Copyright (c) Steve Scherf et al.
# Submitted via: CDex 1.51
#
DISCID=4f0d8606
DTITLE=Michael Duke - Ancient Firmaments
DYEAR=1900
DGENRE=New Age
TTITLE0=Celestial Phenomena
TTITLE1=Gates To The Beyond
TTITLE2=Subterranean Fields
TTITLE3=Eastern Penates
TTITLE4=Imprecation Ritual
TTITLE5=Nether World
EXTD=
EXTT0=
EXTT1=
EXTT2=
EXTT3=
EXTT4=
EXTT5=
PLAYORDER=
